<svg width="44" height="38" viewBox="0 0 44 38" fill="none" xmlns="http://www.w3.org/2000/svg">
<path fill-rule="evenodd" clip-rule="evenodd" d="M24.0625 2.18756C24.0625 1.68094 23.8452 1.19507 23.4584 0.836832C23.0716 0.478598 22.547 0.277344 22 0.277344C21.453 0.277344 20.9284 0.478598 20.5416 0.836832C20.1548 1.19507 19.9375 1.68094 19.9375 2.18756V5.37124H17.2314C16.3927 5.37124 15.5704 5.575 14.8417 5.95704L11.2996 7.83414C11.195 7.88959 11.0764 7.91858 10.9559 7.91819H4.8123C4.26528 7.91819 3.74067 8.11945 3.35387 8.47768C2.96708 8.83592 2.74978 9.32179 2.74978 9.82841C2.74978 10.335 2.96708 10.8209 3.35387 11.1791C3.74067 11.5374 4.26528 11.7386 4.8123 11.7386H5.98931L0.181245 23.6889C0.00969289 24.0425 -0.0416725 24.436 0.0339709 24.8172C0.109614 25.1984 0.308687 25.5493 0.60475 25.8232L2.06227 24.4734L0.60475 25.8232V25.8258L0.61025 25.8309L0.61575 25.836L0.632251 25.8513L0.676251 25.8895L0.800003 25.9913C1.37837 26.4403 2.01152 26.825 2.68652 27.1375C4.41823 27.9194 6.32342 28.3154 8.24984 28.2938C10.6699 28.2938 12.5289 27.7335 13.8132 27.1375C14.4881 26.8249 15.1213 26.4403 15.6997 25.9913L15.8234 25.8895L15.8674 25.8513L15.8839 25.836L15.8894 25.8309L15.8922 25.8258L14.4374 24.4734L15.8949 25.8232C16.191 25.5493 16.3901 25.1984 16.4657 24.8172C16.5414 24.436 16.49 24.0425 16.3184 23.6889L10.5104 11.7386H10.9559C11.7946 11.7386 12.6169 11.5349 13.3456 11.1528L16.8904 9.27572C16.9943 9.2207 17.1118 9.19173 17.2314 9.19167H19.9375V33.3877H13.0624C12.5154 33.3877 11.9908 33.5889 11.604 33.9472C11.2172 34.3054 10.9999 34.7913 10.9999 35.2979C10.9999 35.8045 11.2172 36.2904 11.604 36.6486C11.9908 37.0069 12.5154 37.2081 13.0624 37.2081H30.9376C31.4846 37.2081 32.0092 37.0069 32.396 36.6486C32.7828 36.2904 33.0001 35.8045 33.0001 35.2979C33.0001 34.7913 32.7828 34.3054 32.396 33.9472C32.0092 33.5889 31.4846 33.3877 30.9376 33.3877H24.0625V9.19167H26.7686C26.8882 9.19173 27.0057 9.2207 27.1096 9.27572L30.6571 11.1503C31.3831 11.5374 32.2054 11.7386 33.0441 11.7386H33.4896L27.6816 23.6889C27.51 24.0425 27.4586 24.436 27.5343 24.8172C27.6099 25.1984 27.809 25.5493 28.1051 25.8232L29.5626 24.4734L28.1051 25.8232V25.8258L28.1106 25.8309L28.1161 25.836L28.1326 25.8513L28.1766 25.8895L28.3003 25.9913C28.8787 26.4402 29.5119 26.8249 30.1868 27.1375C31.9186 27.9194 33.8237 28.3154 35.7502 28.2938C38.1702 28.2938 40.0292 27.7335 41.3135 27.1375C41.9885 26.825 42.6217 26.4403 43.2 25.9913L43.3237 25.8895L43.3512 25.864L43.3678 25.8513L43.3843 25.836L43.3898 25.8309L43.3925 25.8258L41.9377 24.4734L43.3952 25.8232C43.6913 25.5493 43.8904 25.1984 43.966 24.8172C44.0417 24.436 43.9903 24.0425 43.8188 23.6889L38.0134 11.7386H39.1877C39.7347 11.7386 40.2593 11.5374 40.6461 11.1791C41.0329 10.8209 41.2502 10.335 41.2502 9.82841C41.2502 9.32179 41.0329 8.83592 40.6461 8.47768C40.2593 8.11945 39.7347 7.91819 39.1877 7.91819H33.0441C32.9245 7.91813 32.807 7.88916 32.7031 7.83414L29.1556 5.95959C28.4295 5.5749 27.6078 5.37212 26.7713 5.37124H24.0625V2.18756ZM4.66105 23.7781C5.44481 24.1219 6.63557 24.4734 8.24984 24.4734C9.86411 24.4734 11.0549 24.1219 11.8386 23.7781L8.24984 16.3919L4.66105 23.7781ZM32.1614 23.7781C32.9451 24.1219 34.1359 24.4734 35.7502 24.4734C37.3644 24.4734 38.5552 24.1219 39.339 23.7781L35.7502 16.3919L32.1614 23.7781Z" fill="white"/>
</svg>
