<svg width="53" height="53" viewBox="0 0 53 53" fill="none" xmlns="http://www.w3.org/2000/svg">
<path d="M25.0433 52.309C25.4747 52.5968 25.9816 52.7504 26.5002 52.7504C27.0188 52.7504 27.5257 52.5968 27.9571 52.309L51.5821 36.559C51.8796 36.3614 52.1336 36.1051 52.3285 35.8057C52.5233 35.5064 52.6549 35.1704 52.7152 34.8183C52.7754 34.4663 52.763 34.1056 52.6787 33.7585C52.5945 33.4114 52.4401 33.0852 52.2252 32.8L28.6002 1.29999C27.6106 -0.0230107 25.3898 -0.0230107 24.4002 1.29999L0.775196 32.8C0.560991 33.0855 0.40727 33.4117 0.323432 33.7587C0.239594 34.1057 0.2274 34.4661 0.287596 34.8179C0.347791 35.1698 0.479111 35.5056 0.673528 35.805C0.867946 36.1043 1.12137 36.3609 1.41832 36.559L25.0433 52.309ZM46.3583 33.7292L26.5002 46.9697V7.25086L46.3583 33.7292Z" fill="#91740C"/>
</svg>
