<svg width="53" height="53" viewBox="0 0 53 53" fill="none" xmlns="http://www.w3.org/2000/svg">
<g clip-path="url(#clip0_24_29)">
<path d="M25.142 33.7324C27.5954 33.7235 32.9595 33.7036 32.8977 30.2918C32.838 26.8026 27.686 27.0124 25.1751 27.1162C24.8947 27.1272 24.6451 27.1383 24.4419 27.1405L24.5568 33.7368C24.7224 33.7324 24.9212 33.7324 25.142 33.7324ZM24.8814 24.1195C26.9285 24.1173 31.396 24.1129 31.343 21.0101C31.2856 17.8368 26.9948 18.0245 24.8991 18.1172C24.6628 18.1283 24.4574 18.1371 24.2852 18.1393L24.3889 24.1217L24.8814 24.1195Z" fill="#91740C"/>
<path fill-rule="evenodd" clip-rule="evenodd" d="M20.0872 52.2072C34.2867 55.7472 48.6674 47.106 52.2074 32.9108C55.7473 18.7134 47.1039 4.33276 32.9043 0.795006C18.7136 -2.74716 4.33291 5.89626 0.795161 20.0958C-2.7448 34.291 5.89641 48.6717 20.0894 52.2094L20.0872 52.2072ZM29.5432 14.6214C33.4167 14.8952 36.4995 16.0303 36.9036 19.5725C37.204 22.165 36.144 23.744 34.4237 24.6583C37.2945 25.2943 39.1164 26.9615 38.8293 30.7775C38.4737 35.5144 34.9691 36.846 29.9385 37.2215L30.0225 42.1902L27.028 42.2454L26.9418 37.3429C26.1667 37.3562 25.3717 37.365 24.548 37.3606L24.6363 42.2852L21.6418 42.3382L21.5535 37.3606L20.7077 37.3672C20.2793 37.3694 19.8465 37.3716 19.4136 37.3805L15.5137 37.4467L16.0459 33.8604C16.0459 33.8604 18.2631 33.856 18.2233 33.8228C19.0713 33.8052 19.2855 33.1935 19.3319 32.8092L19.1972 24.9542L19.4114 24.9498H19.513C19.4074 24.9377 19.3012 24.9325 19.195 24.9343L19.0978 19.3251C18.972 18.72 18.5656 18.0222 17.3532 18.0443C17.3864 18.0001 15.1758 18.0818 15.1758 18.0818L15.1184 14.8842L19.2524 14.8135V14.829C19.873 14.8179 20.5112 14.7958 21.1582 14.7715L21.0743 9.84917L24.0688 9.79838L24.1527 14.6214C24.9521 14.5927 25.756 14.5618 26.5443 14.5485L26.4604 9.75642L29.4571 9.70342L29.5432 14.6258V14.6214Z" fill="#91740C"/>
</g>
<defs>
<clipPath id="clip0_24_29">
<rect width="53" height="53" fill="white"/>
</clipPath>
</defs>
</svg>
