<svg width="43" height="47" viewBox="0 0 43 47" fill="none" xmlns="http://www.w3.org/2000/svg">
<path d="M37.5417 5.16668H27.9625C27.4933 3.82706 26.6193 2.66638 25.4615 1.84518C24.3038 1.02399 22.9194 0.582886 21.5 0.582886C20.0806 0.582886 18.6962 1.02399 17.5385 1.84518C16.3807 2.66638 15.5067 3.82706 15.0375 5.16668H5.45833C4.24387 5.17031 3.08019 5.65436 2.22143 6.51312C1.36268 7.37187 0.878627 8.53556 0.875 9.75002V41.8334C0.878627 43.0478 1.36268 44.2115 2.22143 45.0703C3.08019 45.929 4.24387 46.4131 5.45833 46.4167H37.5417C38.7561 46.4131 39.9198 45.929 40.7786 45.0703C41.6373 44.2115 42.1214 43.0478 42.125 41.8334V9.75002C42.1214 8.53556 41.6373 7.37187 40.7786 6.51312C39.9198 5.65436 38.7561 5.17031 37.5417 5.16668ZM21.5 5.16668C21.9532 5.16668 22.3963 5.30109 22.7732 5.5529C23.15 5.80471 23.4438 6.16262 23.6172 6.58137C23.7907 7.00011 23.8361 7.46089 23.7476 7.90543C23.6592 8.34997 23.4409 8.75831 23.1205 9.0788C22.8 9.3993 22.3916 9.61756 21.9471 9.70598C21.5025 9.79441 21.0418 9.74903 20.623 9.57557C20.2043 9.40212 19.8464 9.10839 19.5945 8.73153C19.3427 8.35467 19.2083 7.9116 19.2083 7.45835C19.2101 6.85112 19.4522 6.26928 19.8815 5.8399C20.3109 5.41052 20.8928 5.1685 21.5 5.16668ZM16.9167 16.625L23.3104 23.0279L29.0854 17.2529L26.0833 14.3333H35.25V23.5L32.3258 20.4956L23.315 29.5133L16.9167 23.1104L10.9904 29.0321L7.75 25.7917L16.9167 16.625ZM37.5417 39.5417H5.45833V34.9584H37.5417V39.5417Z" fill="#91740C"/>
</svg>
