<svg width="41" height="41" viewBox="0 0 41 41" fill="none" xmlns="http://www.w3.org/2000/svg">
<path d="M3.9375 40.375C3.9375 40.375 0.625 40.375 0.625 37.0625C0.625 33.75 3.9375 23.8125 20.5 23.8125C37.0625 23.8125 40.375 33.75 40.375 37.0625C40.375 40.375 37.0625 40.375 37.0625 40.375H3.9375ZM20.5 20.5C23.1356 20.5 25.6632 19.453 27.5269 17.5894C29.3905 15.7257 30.4375 13.1981 30.4375 10.5625C30.4375 7.92691 29.3905 5.39927 27.5269 3.53563C25.6632 1.67198 23.1356 0.625 20.5 0.625C17.8644 0.625 15.3368 1.67198 13.4731 3.53563C11.6095 5.39927 10.5625 7.92691 10.5625 10.5625C10.5625 13.1981 11.6095 15.7257 13.4731 17.5894C15.3368 19.453 17.8644 20.5 20.5 20.5Z" fill="#91740C"/>
</svg>
